HIERARCHY
ROOT hip
{
	OFFSET 0.000000 0.000000 0.000000 
	CHANNELS 6 Xposition Yposition Zposition Xrotation Zrotation Yrotation
	JOINT abdomen
	{
		OFFSET 0.000000 3.402643 0.000000 
		CHANNELS 3 Xrotation Zrotation Yrotation
		JOINT chest
		{
			OFFSET 0.000000 8.438565 -0.680529 
			CHANNELS 3 Xrotation Zrotation Yrotation
			JOINT neck
			{
				OFFSET 0.000000 10.207942 -0.272212 
				CHANNELS 3 Xrotation Zrotation Yrotation
				JOINT head
				{
					OFFSET 0.000000 3.130431 0.000000 
					CHANNELS 3 Xrotation Zrotation Yrotation
					End Site
					{
						OFFSET 0.000000 3.130435 0.000000 
					}
				}
			}
			JOINT lCollar
			{
				OFFSET 3.470700 6.669187 -0.816635 
				CHANNELS 3 Yrotation Zrotation Xrotation
				JOINT lShldr
				{
					OFFSET 3.198488 0.000000 0.000000 
					CHANNELS 3 Zrotation Yrotation Xrotation
					JOINT lForeArm
					{
						OFFSET 10.139888 0.000000 0.000000 
						CHANNELS 3 Yrotation Zrotation Xrotation
						JOINT lHand
						{
							OFFSET 8.370511 0.000000 0.000000 
							CHANNELS 3 Zrotation Yrotation Xrotation
							End Site
							{
								OFFSET 4.083176 0.000000 0.000000 
							}
						}
					}
				}
			}
			JOINT rCollar
			{
				OFFSET -3.470700 6.669187 -0.816635 
				CHANNELS 3 Yrotation Zrotation Xrotation
				JOINT rShldr
				{
					OFFSET -3.198488 0.000000 0.000000 
					CHANNELS 3 Zrotation Yrotation Xrotation
					JOINT rForeArm
					{
						OFFSET -10.139888 0.000000 0.000000 
						CHANNELS 3 Yrotation Zrotation Xrotation
						JOINT rHand
						{
							OFFSET -8.370511 0.000000 0.000000 
							CHANNELS 3 Zrotation Yrotation Xrotation
							End Site
							{
								OFFSET -4.083176 0.000000 0.000000 
							}
						}
					}
				}
			}
		}
	}
	JOINT lThigh
	{
		OFFSET 5.308129 -1.633274 1.361059 
		CHANNELS 3 Xrotation Zrotation Yrotation
		JOINT lShin
		{
			OFFSET -2.041588 -20.007561 0.000000 
			CHANNELS 3 Xrotation Zrotation Yrotation
			JOINT lFoot
			{
				OFFSET 0.000000 -19.190928 -1.224953 
				CHANNELS 3 Xrotation Yrotation Zrotation
				End Site
				{
					OFFSET 0.000000 -2.449906 4.627600 
				}
			}
		}
	}
	JOINT rThigh
	{
		OFFSET -5.308129 -1.633274 1.361059 
		CHANNELS 3 Xrotation Zrotation Yrotation
		JOINT rShin
		{
			OFFSET 2.041588 -20.007561 0.000000 
			CHANNELS 3 Xrotation Zrotation Yrotation
			JOINT rFoot
			{
				OFFSET 0.000000 -19.190928 -1.224953 
				CHANNELS 3 Xrotation Yrotation Zrotation
				End Site
				{
					OFFSET 0.000000 -2.449906 4.627600 
				}
			}
		}
	}
}
MOTION
Frames: 16
Frame Time: 0.033333
3.964100 36.547352 78.872787 16.337891 -4.580078 -142.207428 7.666016 -3.046875 -8.613801 -23.007813 -6.601562 -8.544922 11.718749 -1.318359 -6.689453 26.621094 4.902344 -10.770650 -5.087891 10.634766 0.390625 -81.142578 -15.849609 55.185547 -67.207031 -2.490234 -16.826172 16.220703 -15.449219 -4.084630 4.912109 0.078125 -0.009779 67.333984 6.591797 -1.112159 123.496094 3.583984 -48.535156 -18.330078 1.503906 -0.663804 20.304977 24.017469 7.805802 64.763802 0.145447 -3.661079 -31.726173 25.805849 10.770300 -34.901615 -26.845142 -2.274482 73.338341 -1.415991 3.560639 -15.421062 4.510578 6.363741 
3.885535 36.289490 78.813065 16.162111 -4.921875 -142.735214 7.636719 -2.890625 -9.111820 -22.998047 -8.007812 -9.072265 11.298828 -1.191406 -5.468953 26.093750 4.550781 -9.394531 -4.912109 10.986328 0.390625 -82.802734 -23.789063 55.025360 -68.896484 -2.470703 -17.978514 17.626953 -14.599607 -4.306641 4.560547 -0.810547 -0.107284 62.441406 14.160156 -6.464844 124.199219 3.593750 -49.804688 -18.867188 -0.283203 -0.195359 20.490602 23.851467 8.696846 65.819794 0.321177 -3.267565 -31.476309 25.253887 10.283582 -36.523830 -27.392904 -0.608646 74.776024 -1.427347 3.261137 -14.101302 7.275858 6.960526 
3.869280 35.940010 78.564804 15.458984 -4.921875 -143.261719 7.773438 -2.861328 -9.833985 -22.646484 -9.238281 -9.786724 10.185547 -1.601563 -4.365507 25.380857 4.384766 -7.841796 -4.052734 11.152345 0.439453 -84.951172 -33.740238 53.896488 -72.451172 -2.519531 -16.689026 19.042967 -14.091796 -4.521484 3.505859 -1.513672 -0.087891 55.068359 23.222656 -15.927733 128.203125 3.544922 -48.252560 -19.296875 -2.480469 0.614812 19.966137 24.029526 9.206042 66.698753 0.145298 -3.411921 -30.827988 24.333185 9.398662 -39.284752 -27.898886 0.978796 76.147331 -1.591607 3.538448 -12.863196 9.049933 7.173985 
3.906223 35.569473 78.099213 14.238281 -5.107422 -143.633667 7.900391 -2.500000 -10.449645 -22.119141 -10.468750 -10.673829 8.369142 -1.640625 -3.125295 25.205078 4.033203 -6.268845 -3.203125 11.855470 0.478516 -88.349609 -44.882816 52.539059 -76.337891 -2.187500 -13.046584 20.107424 -13.603516 -4.728858 1.582031 -2.734362 0.078591 45.449223 32.236328 -31.108072 133.779297 3.564453 -46.562504 -19.150391 -5.683593 1.639660 19.596985 24.548807 9.655007 67.231216 0.487248 -3.559087 -29.257010 22.795326 8.013109 -43.185555 -28.979874 2.468530 77.209518 -1.777092 3.436030 -12.319052 9.477220 7.136855 
3.986265 35.235260 77.411453 12.656250 -4.931641 -143.985214 8.173828 -2.207031 -11.465219 -21.757813 -11.875000 -11.564508 6.728516 -1.337891 -1.914070 25.371094 3.330078 -4.852949 -2.353516 13.261719 0.517578 -94.130859 -56.318359 53.222656 -78.789063 -2.080078 -8.476209 20.283203 -13.593750 -4.726563 -1.054688 -3.613281 0.107422 32.919922 39.033207 -51.904293 137.529297 3.564453 -47.178349 -18.291016 -8.193360 2.246094 19.210596 25.032896 10.262916 67.055962 0.488269 -3.540506 -26.997570 20.831184 5.824289 -47.553410 -29.675215 4.392563 77.024529 -1.767340 3.427333 -13.319170 6.238506 6.339301 
4.090691 34.979126 76.490471 10.722657 -4.755859 -144.688309 8.447266 -1.748047 -12.421876 -21.933594 -12.578125 -12.619314 5.625000 -0.869141 -0.908354 25.185547 2.451172 -3.808176 -1.542969 14.482422 0.683594 -103.017578 -66.494148 58.067215 -79.472656 -1.806641 -4.755859 19.648438 -13.212892 -4.338170 -3.857422 -4.501953 0.048828 20.859375 42.060543 -72.132133 139.033203 3.632813 -48.681641 -18.242186 -9.335938 2.586308 19.264639 25.436996 10.544728 65.819763 0.331200 -3.261349 -24.580172 18.716696 3.822518 -51.868572 -30.173162 7.202058 74.757324 -1.415785 3.249646 -14.102393 2.407943 5.761515 
4.236369 34.801430 75.351646 8.603516 -4.228463 -145.381195 8.378905 -1.162109 -13.164063 -22.285156 -12.753907 -13.486330 4.179688 -0.947266 -0.009927 25.185549 1.748047 -2.753608 -0.703125 15.722656 0.641885 -117.587898 -74.433594 69.355469 -79.033203 -1.777344 -2.607422 18.496094 -12.871094 -3.967018 -5.947265 -5.058593 0.176642 11.376953 42.363281 -87.871094 138.535156 3.710938 -50.146484 -18.535156 -10.097657 2.927976 20.260241 25.397873 10.904404 63.374123 0.332012 -3.317438 -22.042330 17.226612 2.001458 -56.012707 -30.565420 10.085837 70.352058 -1.424827 3.441258 -14.218339 1.289444 5.175467 
4.437462 34.692570 74.038452 6.152344 -3.691406 -146.249985 8.310546 -0.410156 -13.857422 -22.470705 -12.402345 -14.365235 1.689453 -1.240234 0.546875 24.999998 1.396484 -1.884766 0.595703 16.621094 0.800781 36.210957 -100.673828 -86.025223 -78.310547 -1.669922 -1.923828 17.734375 -12.617188 -3.730469 -7.519531 -5.263672 0.186443 4.189453 41.738285 -99.339203 137.089844 3.515625 -51.387318 -19.296875 -10.537109 3.045089 20.792650 24.516094 10.555271 60.031788 0.167842 -3.416964 -19.260183 16.945383 0.733170 -59.734089 -30.233740 12.553459 65.249268 -1.248970 3.384955 -13.880033 1.927289 5.532701 
4.741009 34.636417 72.546074 3.164063 -2.822266 -147.139160 7.910156 0.234375 -14.208933 -22.822264 -11.523438 -14.884762 -1.132813 -1.542969 0.937500 24.824219 1.230469 -1.191406 1.777344 17.001951 0.771484 7.275408 -99.287109 -57.822140 -78.691406 -1.621094 -2.646484 16.689455 -11.406250 -3.156228 -8.398438 -5.439454 0.078125 -0.498047 40.371094 -107.226563 135.439453 3.681641 -53.340473 -20.087893 -10.742188 3.349610 21.529623 23.689781 9.706883 55.992477 -0.182461 -3.415792 -15.519004 17.505318 0.047469 -63.508076 -29.861494 14.192719 60.851891 -1.209433 3.411880 -12.983652 2.501567 5.587579 
5.169178 34.638634 70.904335 0.166016 -1.767578 -147.832031 7.880859 1.015625 -14.355429 -22.998047 -10.644532 -15.058595 -4.462891 -1.738281 0.781250 24.472658 0.878906 -0.673678 2.949219 17.031250 0.788155 -11.582028 -99.619141 -39.208847 -78.710938 -1.728516 -3.163768 16.689455 -11.406250 -3.156228 -8.750001 -5.087890 0.097656 -3.291015 39.853516 -111.185143 134.326172 3.740235 -54.209625 -20.820313 -10.644532 3.455227 20.948769 22.748106 7.764399 52.476994 -0.154266 -3.046618 -10.715103 18.214985 -1.341862 -66.447060 -28.982845 14.772990 57.893829 -0.711165 3.232162 -11.129968 2.940155 5.715011 
5.722708 34.697620 69.185364 -2.822266 -0.878906 -148.535309 8.251953 1.474609 -14.042968 -23.173828 -9.775390 -14.874704 -8.320312 -1.777344 0.429385 23.945311 0.888672 -0.527344 4.003906 16.523436 0.690582 -14.492181 -99.638672 -35.576035 -78.359375 -1.777344 -3.329775 16.767578 -12.236329 -3.361445 -8.574219 -4.570313 0.185547 -3.945313 40.312500 -111.210938 134.208984 3.730469 -53.749695 -20.966797 -10.283202 3.437500 19.374035 22.225796 4.510428 50.555450 -0.642671 -2.835522 -4.467129 18.946697 -3.393119 -68.526115 -27.781624 14.275043 55.961830 -0.701391 3.159540 -6.075390 5.043833 5.453629 
6.360836 34.805862 67.477135 -5.458984 0.000000 -148.886719 9.501953 2.099609 -13.671515 -23.349607 -8.896484 -14.347214 -12.500000 -1.699219 -0.458984 22.890625 0.898438 -0.917969 4.697266 15.673829 0.739549 -6.962894 -99.160156 -41.767582 -77.666016 -1.689453 -3.534868 16.865232 -12.851562 -3.701171 -7.548829 -3.652344 0.039063 -1.972656 40.986328 -107.617188 135.322266 3.701172 -53.212887 -21.230469 -9.619140 3.221026 15.777058 22.279402 0.762516 51.243195 -0.196254 -3.384519 1.919180 19.408642 -5.122808 -70.714417 -26.190134 14.631384 57.023624 -0.535304 3.114159 -0.419405 7.384051 4.871329 
7.035414 34.940578 65.888344 -7.392579 0.703125 -149.238281 11.699219 3.037110 -12.490234 -22.998047 -8.183595 -13.292404 -17.021484 -2.343750 -1.455478 22.011719 1.250000 -1.835725 4.951172 14.257813 0.605469 14.521502 -98.632813 -61.269421 -76.972656 -1.767578 -3.710636 16.953125 -13.681641 -3.908560 -5.449219 -2.578125 0.097656 1.689453 41.816406 -101.142578 137.001953 3.564453 -52.305298 -20.937500 -8.867188 2.908653 9.959178 22.163755 -3.232888 55.985630 -0.048679 -3.531393 7.138509 19.904514 -6.886752 -73.262115 -24.266705 14.881650 60.321648 -1.209778 3.218948 1.615865 6.059117 4.786927 
7.654576 35.143276 64.495346 -8.974609 0.869141 -149.599457 14.619141 3.710938 -11.005859 -22.470703 -7.656250 -11.895831 -21.005857 -3.193360 -2.773981 20.957029 1.611328 -3.115234 4.687500 12.832032 0.476347 44.804703 -99.658203 -89.882675 -75.800781 -1.767578 -4.814453 16.689453 -14.531250 -4.062500 -2.646484 -1.679688 -0.087604 8.183595 43.330082 -90.940567 138.457031 3.740235 -51.055321 -20.429688 -7.832032 2.420545 2.793522 21.549603 -5.085770 62.810413 0.481783 -3.908428 7.622304 21.226887 -7.318616 -75.389168 -22.861219 14.644721 63.317062 -1.239093 3.319864 0.758405 4.351150 4.762354 
8.182861 35.434261 63.305416 -10.556642 0.703125 -150.117188 17.558592 4.228516 -9.033203 -21.767578 -7.304688 -10.146483 -24.101564 -4.394531 -4.062500 19.912109 2.148437 -4.560547 3.691406 11.562500 0.419922 -111.601563 -76.699219 67.373306 -74.121094 -1.962891 -6.259767 16.074219 -15.810546 -4.082031 0.517578 -0.624999 0.000107 16.259766 44.842438 -78.958252 138.613281 3.583984 -49.433598 -19.765625 -6.787109 1.951971 -4.021565 21.166769 -3.690242 68.079742 0.783782 -3.629112 1.487444 22.726713 -5.351015 -77.035538 -21.806173 14.387543 66.136978 -1.248912 3.427714 -0.355923 4.201982 4.786011 
8.609181 35.822903 62.314110 -12.138672 0.527344 -150.478546 20.302736 4.453125 -7.303928 -21.416016 -7.128906 -8.389884 -26.142578 -5.244141 -5.401283 18.330078 2.509765 -6.210938 2.841797 10.498048 0.476736 -97.861328 -71.445305 53.945305 -72.597656 -2.011719 -7.021484 15.058593 -16.582031 -4.033202 3.505859 0.429688 -0.029370 25.273436 45.996094 -67.138672 137.470703 3.710938 -47.890621 -19.160156 -5.859375 1.639628 -9.313499 21.059320 0.159835 71.233368 0.949510 -3.830198 -5.997112 25.738697 -2.149613 -78.178520 -21.269144 13.822647 67.349709 -1.600752 3.586349 -1.747734 4.150177 5.195379 
